# xmcd
#
# Track frame offsets:
#	183
#	18995
#	38213
#	71620
#	92795
#	113518
#	135348
#	155308
#
# Disc length: 2368 seconds
#
# Revision: 2
# Processed by: cddbd v1.5.2PL0 Copyright (c) Steve Scherf et al.
# Submitted via: audiograbber 1.83.01
#
DISCID=59093e08
DTITLE=King, Albert - Truckload of lovin'
DYEAR=1975
DGENRE=Blues
TTITLE0=Cold women with warm hearts
TTITLE1=Gonna make it somehow
TTITLE2=Sensation, communication together
TTITLE3=I'm your mate
TTITLE4=Truckload of lovin'
TTITLE5=Hold hands with one another
TTITLE6=Cadillac assembly line
TTITLE7=Nobody wants a loser
EXTD=
EXTT0=
EXTT1=
EXTT2=
EXTT3=
EXTT4=
EXTT5=
EXTT6=
EXTT7=
PLAYORDER=
